<?xml version="1.0" encoding="utf-8"?>
<svg height="450" width="649.406" style="height: 450px; width: 649.406px;">
<svg version="1.1" id="Layer_1" xmlns="http://www.w3.org/2000/svg" xmlns:xlink="http://www.w3.org/1999/xlink" x="0px" y="0px"
     width="270px" height="270px" viewBox="0 0 270 270" style="enable-background:new 0 0 270 270;" xml:space="preserve">


<g class="nvd3 nv-wrap nv-multiBarWithLegend" transform="translate(45,20)"><g><g class="nv-x nv-axis" transform="translate(0,370)"><g class="nvd3 nv-wrap nv-axis"><g><g class="tick" transform="translate(45.270887323943654,0)" style="opacity: 1;"><line y2="-370" style="opacity: 1;" x2="0"></line><text dy=".71em" y="7" style="text-anchor: middle; opacity: 1;" x="0">366.707 - 367.767</text></g><g class="tick" transform="translate(127.58159154929575,0)" style="opacity: 1;"><line y2="-370" style="opacity: 1;" x2="0"></line><text dy=".71em" y="7" style="text-anchor: middle; opacity: 1;" x="0">367.767 - 368.828</text></g><g class="tick" transform="translate(209.89229577464783,0)" style="opacity: 1;"><line y2="-370" style="opacity: 1;" x2="0"></line><text dy=".71em" y="7" style="text-anchor: middle; opacity: 1;" x="0">368.828 - 369.888</text></g><g class="tick" transform="translate(292.203,0)" style="opacity: 1;"><line y2="-370" style="opacity: 1;" x2="0"></line><text dy=".71em" y="7" style="text-anchor: middle; opacity: 1;" x="0">369.888 - 370.949</text></g><g class="tick" transform="translate(374.51370422535206,0)" style="opacity: 1;"><line y2="-370" style="opacity: 1;" x2="0"></line><text dy=".71em" y="7" style="text-anchor: middle; opacity: 1;" x="0">370.949 - 372.009</text></g><g class="tick" transform="translate(456.82440845070414,0)" style="opacity: 1;"><line y2="-370" style="opacity: 1;" x2="0"></line><text dy=".71em" y="7" style="text-anchor: middle; opacity: 1;" x="0">372.009 - 373.070</text></g><g class="tick" transform="translate(539.1351126760562,0)" style="opacity: 1;"><line y2="-370" style="opacity: 1;" x2="0"></line><text dy=".71em" y="7" style="text-anchor: middle; opacity: 1;" x="0">373.070 - 374.130</text></g><path class="domain" d="M0,0V0H584.406V0"></path><text class="nv-axislabel" text-anchor="middle" y="30" x="292.203" style="opacity: 1;"></text></g></g></g><g class="nv-y nv-axis"><g class="nvd3 nv-wrap nv-axis"><g><g class="tick" transform="translate(0,370)" style="opacity: 1;"><line x2="584.406" y2="0"></line><text dy=".32em" x="-3" opacity="0" style="text-anchor: end;" y="0">0.0</text></g><g class="tick" transform="translate(0,315.5882352941176)" style="opacity: 1;"><line x2="584.406" y2="0"></line><text dy=".32em" x="-3" opacity="1" style="text-anchor: end;" y="0">0.1</text></g><g class="tick" transform="translate(0,261.17647058823525)" style="opacity: 1;"><line x2="584.406" y2="0"></line><text dy=".32em" x="-3" opacity="1" style="text-anchor: end;" y="0">0.1</text></g><g class="tick" transform="translate(0,206.76470588235296)" style="opacity: 1;"><line x2="584.406" y2="0"></line><text dy=".32em" x="-3" opacity="1" style="text-anchor: end;" y="0">0.1</text></g><g class="tick" transform="translate(0,152.35294117647058)" style="opacity: 1;"><line x2="584.406" y2="0"></line><text dy=".32em" x="-3" opacity="1" style="text-anchor: end;" y="0">0.2</text></g><g class="tick" transform="translate(0,97.94117647058826)" style="opacity: 1;"><line x2="584.406" y2="0"></line><text dy=".32em" x="-3" opacity="1" style="text-anchor: end;" y="0">0.3</text></g><g class="tick" transform="translate(0,43.529411764705934)" style="opacity: 1;"><line x2="584.406" y2="0"></line><text dy=".32em" x="-3" opacity="1" style="text-anchor: end;" y="0">0.3</text></g><path class="domain" d="M0,0H0V370H0"></path><text class="nv-axislabel" transform="rotate(-90)" y="-35" x="-185" style="text-anchor: middle;"></text></g><g class="nv-axisMaxMin" transform="translate(0,370)"><text dy=".32em" y="0" x="-3" text-anchor="end" style="opacity: 1;">0.0</text></g><g class="nv-axisMaxMin" transform="translate(0,0)"><text dy=".32em" y="0" x="-3" text-anchor="end" style="opacity: 1;">0.3</text></g></g></g><g class="nv-barsWrap"><g class="nvd3 nv-wrap nv-multibar" transform="translate(0,0)"><defs><clipPath id="nv-edge-clip-9113"><rect width="584.406" height="370"></rect></clipPath></defs><g clip-path="url(#nv-edge-clip-9113)"><g class="nv-groups"><g class="nv-group nv-series-0" style="stroke-opacity: 1; fill-opacity: 0.75; fill: rgb(228, 26, 28); stroke: rgb(228, 26, 28);"><rect class="nv-bar positive" x="0" y="293.8235294117647" height="76.1764705882353" width="74.07963380281689" transform="translate(8.23107042253521,0)" style="fill: rgb(228, 26, 28); stroke: rgb(228, 26, 28);"></rect><rect class="nv-bar positive" x="0" y="141.47058823529414" height="228.52941176470586" width="74.07963380281689" transform="translate(90.54177464788731,0)" style="fill: rgb(228, 26, 28); stroke: rgb(228, 26, 28);"></rect><rect class="nv-bar positive" x="0" y="0" height="370" width="74.07963380281689" transform="translate(172.8524788732394,0)" style="fill: rgb(228, 26, 28); stroke: rgb(228, 26, 28);"></rect><rect class="nv-bar positive" x="0" y="293.8235294117647" height="76.1764705882353" width="74.07963380281689" transform="translate(255.1631830985915,0)" style="fill: rgb(228, 26, 28); stroke: rgb(228, 26, 28);"></rect><rect class="nv-bar positive" x="0" y="261.17647058823525" height="108.82352941176475" width="74.07963380281689" transform="translate(337.4738873239436,0)" style="fill: rgb(228, 26, 28); stroke: rgb(228, 26, 28);"></rect><rect class="nv-bar positive" x="0" y="217.6470588235294" height="152.3529411764706" width="74.07963380281689" transform="translate(419.78459154929567,0)" style="fill: rgb(228, 26, 28); stroke: rgb(228, 26, 28);"></rect><rect class="nv-bar positive" x="0" y="293.8235294117647" height="76.1764705882353" width="74.07963380281689" transform="translate(502.0952957746478,0)" style="fill: rgb(228, 26, 28); stroke: rgb(228, 26, 28);"></rect></g></g></g></g></g><g class="nv-legendWrap"></g><g class="nv-controlsWrap" transform="translate(0,-20)"><g class="nvd3 nv-legend" transform="translate(0,5)"><g transform="translate(32,5)"><rect class="nv-series-bg" transform="translate(-10,-25)" style="stroke-width: 1; stroke-opacity: 0; fill-opacity: 0; fill: rgb(255, 255, 255);" height="55" width="180"></rect><g class="nv-series" transform="translate(0,5)"><circle class="nv-legend-symbol" r="5" style="stroke-width: 2; fill-opacity: 0.3;"></circle><text text-anchor="start" class="nv-legend-text" dy=".32em" dx="8">Grouped</text></g><g class="nv-series" transform="translate(76,5)"><circle class="nv-legend-symbol disabled" r="5" style="stroke-width: 2; fill-opacity: 0;"></circle><text text-anchor="start" class="nv-legend-text" dy=".32em" dx="8">Stacked</text></g></g></g></g></g></g></svg>